<svg width="266" height="217" viewBox="0 0 266 217" fill="none" xmlns="http://www.w3.org/2000/svg">
<g clip-path="url(#clip0)">
<path d="M227.044 83.4202C278.983 113.978 278.983 163.523 227.042 194.081C175.103 224.639 90.8933 224.639 38.9539 194.081C-12.9855 163.523 -12.9851 113.979 38.9544 83.4208C90.8938 52.8624 175.104 52.8624 227.044 83.4202Z" fill="#F3F2F1"/>
<path d="M45.0867 169.157C48.3765 169.807 51.8281 169.636 55.1328 170.299C57.4024 170.754 59.5731 171.596 61.7287 172.44C63.6596 173.195 65.5883 173.953 67.5153 174.717C67.8995 174.869 72.5151 176.464 72.5151 176.685C80.3269 179.598 88.2534 183.79 96.8458 183.287C98.872 183.168 100.836 182.204 102.171 180.673C103.505 179.142 104.194 177.064 104.038 175.037C103.912 173.397 103.261 171.78 103.501 170.152C104.143 165.785 108.145 166.236 111.362 166.981C113.24 167.417 115.094 167.948 116.928 168.54C121.756 170.096 126.843 171.548 130.681 175.046C133.152 177.298 135.532 178.19 138.872 178.566C141.201 178.828 143.494 178.974 145.726 179.749C147.926 180.512 149.839 181.982 151.875 183.111C157.392 186.168 164.646 185.755 169.781 182.091C170.644 181.476 171.531 180.573 171.362 179.526C170.953 177.002 166.731 176.488 164.943 175.425C161.71 173.503 158.466 171.603 155.197 169.745C148.66 166.028 142.042 162.451 135.351 159.019C128.2 155.351 120.948 151.84 113.394 149.098C109.671 147.747 105.429 146.61 101.87 148.35C99.0008 149.753 97.8689 152.414 96.0066 154.782C94.2748 156.983 92.0266 159.259 89.4796 160.495C87.4494 161.48 85.1438 161.709 82.8906 161.81C75.4157 162.148 67.9324 161.244 60.5751 159.879C57.4593 159.301 54.3156 158.637 51.1528 158.83C47.7627 159.037 42.2085 159.91 40.3573 163.187C40.0646 163.705 39.7899 164.252 39.727 164.844C39.6246 165.808 40.1158 166.767 40.8332 167.42C41.5507 168.071 42.4705 168.455 43.3971 168.738C43.9544 168.908 44.5183 169.044 45.0867 169.157Z" fill="#DADBD8"/>
<path d="M222.53 129.612C227.231 132.33 227.231 136.738 222.53 139.456C217.828 142.174 210.206 142.174 205.505 139.456C200.804 136.738 200.804 132.33 205.505 129.612C210.206 126.894 217.828 126.894 222.53 129.612Z" fill="#DADBD8"/>
<path d="M204.695 178.815L202.729 177.679C201.396 176.908 201.396 175.657 202.729 174.887L207.11 172.354L191.256 163.186L186.875 165.719C185.542 166.49 183.38 166.49 182.046 165.719L180.081 164.582C178.747 163.812 178.747 162.562 180.081 161.79L193.37 154.106C194.704 153.335 196.866 153.335 198.199 154.106L200.166 155.243C201.499 156.014 201.499 157.263 200.166 158.035L195.328 160.832L211.183 169.999L216.02 167.201C217.353 166.43 219.515 166.43 220.849 167.201L222.815 168.338C224.148 169.109 224.148 170.36 222.815 171.13L209.524 178.815C208.191 179.586 206.029 179.586 204.695 178.815Z" fill="#DADBD8"/>
<path d="M238.35 101.018L233.038 97.9472C233.038 97.9472 231.737 86.5547 232.603 77.732C233.82 65.3339 241.814 50.4162 251.352 53.9196C260.89 57.4236 246.979 70.049 243.883 80.5648C240.786 91.0806 238.35 101.018 238.35 101.018Z" fill="#5D43C5"/>
<path d="M238.35 101.018L233.038 97.9472C233.038 97.9472 232.306 91.539 232.306 84.6126C232.306 82.3036 232.387 79.9377 232.603 77.732C233.697 66.5847 240.27 53.4003 248.518 53.4003C249.444 53.4003 250.39 53.5661 251.352 53.9196C253.723 54.7907 254.645 56.2247 254.644 58.0501C254.643 63.5687 246.209 72.6629 243.883 80.5648C240.786 91.0806 238.35 101.018 238.35 101.018Z" fill="#4228A7"/>
<path d="M235.557 99.7253H235.567C235.745 99.7192 235.884 99.5707 235.878 99.3925C234.945 71.8444 248.639 57.9877 248.776 57.8509C248.903 57.7258 248.904 57.522 248.78 57.3958C248.654 57.269 248.45 57.2674 248.325 57.3924C248.184 57.5309 234.292 71.5875 235.235 99.4143C235.241 99.5885 235.384 99.7253 235.557 99.7253Z" fill="white"/>
<path d="M241.69 102.934L237.91 100.748C237.91 100.748 237.267 92.9307 241.094 83.4334C244.426 75.1657 252.693 68.3069 256.851 69.7481C261.008 71.1893 260.906 74.1427 258.879 77.2396C256.851 80.337 244.518 87.7197 241.69 102.934Z" fill="#5D43C5"/>
<path d="M239.696 102.103H239.698C239.875 102.102 240.019 101.958 240.018 101.78C239.942 84.3614 256.273 72.5898 256.439 72.4725C256.583 72.3698 256.618 72.1687 256.515 72.0236C256.413 71.8789 256.213 71.8432 256.067 71.9471C255.899 72.066 239.298 84.0331 239.375 101.782C239.375 101.959 239.519 102.103 239.696 102.103Z" fill="white"/>
<path d="M35.4688 96.0957L39.9475 93.5042C39.9475 93.5042 42.613 82.4121 41.5507 72.4312C40.0573 58.3981 30.8339 53.1179 27.3268 54.3279C23.8194 55.5385 22.8034 59.6221 28.6068 67.9797C32.0307 72.9104 36.2368 83.1816 35.4688 96.0957Z" fill="#5D43C5"/>
<path d="M35.4687 96.0957C35.531 95.0493 35.5607 94.0196 35.5607 93.0094C35.5602 81.5516 31.7532 72.5111 28.6068 67.9797C25.6655 63.7437 24.4759 60.6054 24.4745 58.383C24.4733 56.2209 25.5969 54.9248 27.3267 54.3279C27.6486 54.2173 28.0183 54.1609 28.4262 54.1609C32.4617 54.1609 40.1945 59.6863 41.5507 72.4312C41.7271 74.088 41.8008 75.7755 41.8008 77.4379C41.8014 85.7893 39.9474 93.5042 39.9474 93.5042L35.4687 96.0957Z" fill="#4228A7"/>
<path d="M37.3243 90.6467L37.2817 90.6412C37.1131 90.6088 37.0022 90.4463 37.0345 90.2776C39.4894 77.3345 34.9747 62.7904 29.3838 56.7384C29.2675 56.6122 29.2752 56.4151 29.4013 56.2984C29.5272 56.1834 29.7238 56.1895 29.8401 56.3163C35.5327 62.4782 40.136 77.2602 37.6446 90.3938C37.6153 90.5479 37.4766 90.654 37.3243 90.6467Z" fill="white"/>
<path d="M23.7361 102.881C23.0287 103.242 21.1471 101.629 20.6226 101.237C19.7246 100.565 19.0163 99.6432 18.5665 98.618C18.0432 97.4241 17.9593 96.17 18.2063 94.8912C18.3346 94.2284 18.5539 93.5868 18.7726 92.948C18.9873 92.3209 19.2019 91.6938 19.4166 91.0668C19.6286 90.4481 19.8433 89.8076 19.793 89.1554C19.692 87.8414 18.5809 86.8681 17.5683 86.0261C16.4491 85.0947 15.2955 83.8818 15.3813 82.3105C15.4476 81.0976 16.1315 80.0032 16.93 79.0891C17.7282 78.175 18.6613 77.3792 19.3901 76.4087C19.915 75.7096 20.3386 74.8793 20.3033 74.0059C20.2811 73.4632 20.0829 72.9433 19.8487 72.453C19.3461 71.4016 18.6619 70.4272 18.335 69.3081C18.0083 68.1896 18.1314 66.8249 19.0283 66.0811C19.7643 65.4708 20.8136 65.4334 21.7629 65.5451C22.6408 65.6478 23.4809 66.0889 24.2299 66.5574C26.6519 68.0707 27.9252 71.0978 30.5158 72.2995C31.5151 72.7624 32.6278 72.9093 33.6768 73.2443C34.7257 73.5793 35.7823 74.1779 36.2251 75.1875C37.0979 77.1782 35.1764 79.4799 35.7549 81.5756C36.2667 83.4295 38.0013 84.2174 38.9122 85.911C39.3106 86.652 39.3691 87.488 39.2565 88.3222C39.0666 89.7339 38.8072 90.7635 38.0484 92.3058C37.4213 93.5807 35.6558 95.9896 35.6558 95.9896C35.6558 95.9896 23.8444 102.826 23.7361 102.881Z" fill="#5D43C5"/>
<path d="M30.5918 99.3031L30.5833 99.3025C30.408 99.2863 30.2825 99.1344 30.2978 98.9641C31.4317 86.6531 26.3135 72.7405 22.2922 68.5704C22.1732 68.447 22.1763 68.2499 22.2998 68.1304C22.4235 68.0114 22.6195 68.0148 22.7391 68.1376C26.8412 72.3915 32.0664 86.5364 30.9172 99.0205C30.9013 99.188 30.7571 99.3114 30.5918 99.3031Z" fill="white"/>
<path d="M29.3708 84.1242L29.2798 84.1052C25.3839 82.6802 20.462 82.215 20.4129 82.2105C20.2419 82.1943 20.1165 82.043 20.1318 81.8721C20.1476 81.7013 20.2842 81.5728 20.4698 81.5901C20.5199 81.5952 25.5196 82.0676 29.4928 83.5211C29.654 83.5797 29.7372 83.7584 29.6779 83.9198C29.6302 84.051 29.5035 84.1303 29.3708 84.1242Z" fill="white"/>
<path d="M196.616 146.862C195.571 143.441 191.301 140.61 187.31 141.73L187.311 141.73C186.737 141.886 186.135 142.139 185.513 142.499C181.642 144.735 178.504 150.178 178.504 154.656C178.504 155.493 178.614 156.237 178.818 156.878L178.816 156.878C179.861 160.299 184.13 163.113 188.123 161.994L188.121 161.992C188.694 161.836 189.295 161.583 189.915 161.225C193.786 158.987 196.924 153.543 196.924 149.067C196.924 148.237 196.816 147.499 196.616 146.862Z" fill="#33535F"/>
<path d="M189.915 161.225C193.786 158.987 196.924 153.543 196.924 149.067C196.924 144.59 193.786 142.775 189.915 145.011C186.043 147.247 182.906 152.691 182.906 157.168C182.906 161.647 186.044 163.463 189.915 161.225Z" fill="#273E47"/>
<path d="M189.915 149.977C191.403 149.116 192.61 149.814 192.61 151.535C192.61 153.257 191.403 155.351 189.915 156.211C188.426 157.072 187.219 156.374 187.219 154.653C187.219 152.931 188.426 150.838 189.915 149.977Z" fill="#33535F"/>
<path d="M190.837 152.56C190.837 153.149 190.426 153.866 189.916 154.164C189.679 154.302 189.459 154.323 189.296 154.245L189.229 154.206C189.08 154.099 188.992 153.901 188.992 153.628C188.992 153.039 189.406 152.322 189.916 152.024C190.153 151.886 190.37 151.865 190.532 151.943L190.6 151.982C190.749 152.085 190.837 152.284 190.837 152.56Z" fill="#273E47"/>
<path d="M205.645 161.122C205.645 161.71 205.234 162.427 204.723 162.722C204.575 162.81 204.444 162.846 204.323 162.846C204.213 162.846 204.114 162.814 204.015 162.757L189.296 154.245L189.229 154.206C189.08 154.099 188.992 153.901 188.992 153.628C188.992 153.039 189.406 152.322 189.916 152.024C190.153 151.886 190.37 151.865 190.532 151.943L190.6 151.982L205.318 160.49C205.527 160.611 205.645 160.792 205.645 161.122Z" fill="#FAFAF9"/>
<path d="M220.093 160.432C219.048 157.011 214.779 154.18 210.787 155.3L210.788 155.301C210.214 155.457 209.612 155.71 208.99 156.069C205.119 158.305 201.981 163.749 201.981 168.227C201.981 169.063 202.091 169.807 202.295 170.449L202.293 170.448C203.339 173.869 207.608 176.683 211.599 175.564L211.598 175.563C212.171 175.407 212.772 175.154 213.392 174.795C217.263 172.557 220.401 167.114 220.401 162.637C220.401 161.808 220.293 161.07 220.093 160.432Z" fill="#33535F"/>
<path d="M213.392 174.795C217.263 172.557 220.401 167.114 220.401 162.638C220.401 158.161 217.263 156.345 213.392 158.581C209.521 160.818 206.383 166.261 206.383 170.739C206.383 175.218 209.521 177.034 213.392 174.795Z" fill="#273E47"/>
<path d="M213.392 163.547C214.881 162.687 216.088 163.385 216.088 165.106C216.088 166.828 214.881 168.921 213.392 169.782C211.903 170.643 210.696 169.945 210.696 168.223C210.696 166.502 211.903 164.408 213.392 163.547Z" fill="#33535F"/>
<path d="M214.314 166.131C214.314 166.72 213.903 167.436 213.393 167.734C213.156 167.872 212.937 167.894 212.774 167.816L212.706 167.777C212.557 167.67 212.469 167.472 212.469 167.199C212.469 166.609 212.884 165.893 213.393 165.595C213.631 165.457 213.847 165.436 214.009 165.513L214.077 165.552C214.226 165.656 214.314 165.854 214.314 166.131Z" fill="#273E47"/>
<path d="M216.546 167.422C216.546 168.011 216.135 168.727 215.625 169.022C215.476 169.11 215.345 169.146 215.225 169.146C215.115 169.146 215.016 169.114 214.917 169.057L212.774 167.816L212.706 167.777C212.557 167.67 212.469 167.472 212.469 167.199C212.469 166.609 212.884 165.893 213.393 165.595C213.631 165.457 213.847 165.436 214.009 165.513L214.077 165.552L216.22 166.791C216.429 166.911 216.546 167.092 216.546 167.422Z" fill="#FAFAF9"/>
<path d="M216.546 167.416C216.546 168.005 216.135 168.722 215.625 169.019C215.388 169.158 215.168 169.179 215.005 169.101L214.938 169.062C214.789 168.956 214.701 168.757 214.701 168.484C214.701 167.895 215.115 167.178 215.625 166.88C215.863 166.742 216.078 166.721 216.241 166.799L216.308 166.838C216.458 166.941 216.546 167.139 216.546 167.416Z" fill="#DADBD8"/>
<path d="M222.491 119.658C222.22 118.445 221.598 117.149 221.083 116.016C221.022 115.884 220.957 115.752 220.89 115.619C219.766 113.393 219.772 110.76 220.991 108.585C221.033 108.51 221.074 108.435 221.115 108.36C221.875 106.979 222.202 105.793 222.205 104.219C222.209 103.019 221.424 101.225 219.844 100.304C219.502 100.102 219.134 99.9236 218.748 99.7711C218.037 99.4835 217.559 98.8057 217.561 98.0339L217.57 95.8902L210.716 95.8634L210.708 98.0071C210.705 98.7794 210.22 99.4528 209.507 99.7354C209.121 99.885 208.752 100.06 208.407 100.26C206.82 101.168 206.021 102.957 206.017 104.157C206.007 105.73 206.325 106.918 207.073 108.306C207.111 108.376 207.149 108.446 207.188 108.516C208.397 110.704 208.387 113.342 207.245 115.566C207.177 115.698 207.112 115.83 207.051 115.962C206.528 117.09 205.89 118.381 205.615 119.593C205.348 120.768 205.285 122.029 205.28 123.286L205.241 133.272C205.236 134.57 206.084 135.867 207.788 136.86C209.18 137.67 210.93 138.156 212.741 138.308C213.563 138.379 214.398 138.382 215.215 138.318C217.023 138.171 218.759 137.703 220.148 136.908C221.859 135.929 222.718 134.638 222.722 133.345L222.751 126.122C222.754 125.222 222.789 124.282 222.793 123.341C222.798 122.088 222.748 120.831 222.491 119.658Z" fill="#5D43C5"/>
<path d="M214.039 138.364C213.606 138.364 213.171 138.345 212.741 138.308C210.93 138.156 209.18 137.67 207.788 136.859C206.091 135.871 205.243 134.58 205.241 133.287C205.241 133.282 205.241 133.277 205.241 133.272L205.28 123.286C205.285 122.029 205.348 120.767 205.615 119.593C205.89 118.381 206.528 117.09 207.051 115.962C207.112 115.83 207.177 115.698 207.245 115.566C207.81 114.467 208.097 113.267 208.098 112.07C208.099 110.845 207.8 109.622 207.188 108.516C207.149 108.446 207.111 108.375 207.073 108.306C206.336 106.94 206.017 105.767 206.017 104.23C206.017 104.205 206.017 104.181 206.017 104.157C206.021 102.957 206.82 101.168 208.407 100.26C208.752 100.06 209.121 99.8849 209.507 99.7353C209.531 99.7258 209.555 99.7157 209.579 99.7051C209.685 100.293 210.13 100.868 210.911 101.326C211.825 101.858 213.027 102.126 214.23 102.126C215.41 102.126 216.59 101.868 217.494 101.351C217.947 101.091 218.292 100.788 218.519 100.463C218.67 100.251 218.771 100.028 218.822 99.8012C219.18 99.9469 219.523 100.114 219.844 100.304C221.421 101.223 222.206 103.013 222.205 104.213C222.205 104.215 222.205 104.217 222.205 104.219C222.203 105.782 221.88 106.963 221.131 108.332C221.774 107.155 222.102 106.116 222.182 104.856C222.024 105.353 221.804 105.834 221.533 106.275C220.747 107.548 219.603 108.555 218.444 109.502C217.27 110.462 215.965 111.553 215.819 113.064C215.678 114.526 216.708 115.855 217.879 116.739C219.05 117.623 220.422 118.245 221.475 119.268C221.934 119.713 222.316 120.226 222.669 120.761C222.625 120.388 222.57 120.018 222.491 119.658C222.737 120.78 222.794 121.98 222.794 123.179C222.794 123.233 222.794 123.287 222.793 123.341C222.789 124.281 222.754 125.222 222.751 126.122L222.722 133.345C222.718 134.638 221.859 135.929 220.148 136.907C218.759 137.703 217.023 138.171 215.215 138.317C214.826 138.348 214.433 138.364 214.039 138.364ZM220.061 112.168C220.061 110.931 220.368 109.698 220.991 108.584C221.033 108.509 221.075 108.435 221.115 108.36C221.075 108.435 221.033 108.509 220.991 108.585C220.368 109.698 220.061 110.931 220.061 112.168ZM221.124 108.346C221.125 108.342 221.127 108.339 221.129 108.336C221.127 108.339 221.125 108.342 221.124 108.346Z" fill="#7D61ED"/>
<path d="M222.491 119.658C222.224 118.459 221.613 117.179 221.101 116.056C221.613 117.179 222.224 118.459 222.491 119.658ZM220.89 115.619C220.341 114.532 220.062 113.349 220.061 112.168C220.062 113.348 220.341 114.532 220.89 115.619ZM221.115 108.36C221.118 108.355 221.121 108.35 221.124 108.346C221.121 108.35 221.118 108.355 221.115 108.36ZM221.129 108.336C221.13 108.334 221.13 108.333 221.131 108.332C221.13 108.333 221.13 108.335 221.129 108.336Z" fill="#D5D7D4"/>
<path d="M222.669 120.761C222.316 120.226 221.934 119.713 221.475 119.268C220.422 118.245 219.05 117.623 217.879 116.739C216.708 115.855 215.678 114.526 215.819 113.064C215.965 111.553 217.27 110.462 218.444 109.502C219.602 108.555 220.747 107.548 221.533 106.275C221.804 105.834 222.024 105.353 222.182 104.856C222.102 106.116 221.774 107.155 221.131 108.332C221.13 108.333 221.13 108.334 221.129 108.336C221.127 108.339 221.125 108.343 221.124 108.346C221.121 108.35 221.118 108.355 221.115 108.36C221.074 108.435 221.033 108.509 220.991 108.584C220.367 109.698 220.061 110.931 220.061 112.168C220.062 113.349 220.341 114.532 220.89 115.619C220.957 115.752 221.022 115.884 221.083 116.016C221.089 116.029 221.095 116.043 221.101 116.056C221.613 117.179 222.224 118.459 222.491 119.658C222.57 120.018 222.625 120.388 222.669 120.761Z" fill="#30159D"/>
<path d="M209.558 98.2567L209.554 99.4109C209.546 100.098 210 100.792 210.911 101.326C212.723 102.382 215.669 102.394 217.494 101.351C217.947 101.091 218.292 100.789 218.519 100.464C218.747 100.143 218.861 99.8001 218.862 99.4562L218.866 98.2841C218.866 98.1797 218.858 98.0758 218.831 97.9714C218.721 97.3873 218.28 96.82 217.513 96.3738L217.446 96.3369C215.625 95.3162 212.728 95.3184 210.93 96.3481C210.16 96.7887 209.71 97.3521 209.596 97.9312C209.568 98.0395 209.559 98.1478 209.558 98.2567Z" fill="#5D43C5"/>
<path d="M214.23 102.126C213.028 102.126 211.825 101.858 210.911 101.326C210.008 100.797 209.554 100.109 209.554 99.4265C209.554 99.4215 209.554 99.4159 209.554 99.4109L209.558 98.2567C209.558 98.2003 209.561 98.1439 209.567 98.0875C209.489 98.8279 209.938 99.5851 210.915 100.155C211.829 100.689 213.033 100.955 214.234 100.955C215.415 100.955 216.594 100.697 217.497 100.18C218.38 99.6745 218.836 99.0133 218.866 98.346L218.862 99.4561C218.861 99.8001 218.747 100.143 218.519 100.463C218.292 100.788 217.947 101.091 217.494 101.351C216.59 101.868 215.41 102.126 214.23 102.126Z" fill="#9C84FA"/>
<path d="M218.866 98.3459V98.284C218.866 98.2806 218.866 98.2773 218.866 98.2739C218.866 98.1734 218.857 98.0723 218.831 97.9713C218.832 97.9668 218.834 97.9623 218.835 97.9579C218.861 98.0868 218.871 98.2164 218.866 98.3459ZM209.567 98.0874C209.573 98.0327 209.582 97.9774 209.594 97.9221C209.594 97.9249 209.595 97.9283 209.596 97.931C209.582 97.983 209.573 98.0355 209.567 98.0874Z" fill="#BABCBA"/>
<path d="M214.234 100.955C213.033 100.955 211.829 100.689 210.915 100.155C209.938 99.5851 209.489 98.8279 209.567 98.0875C209.573 98.0356 209.582 97.9831 209.596 97.9311C209.707 98.5108 210.151 99.0781 210.918 99.5248C211.729 99.9983 212.768 100.26 213.824 100.31C213.964 100.317 214.104 100.321 214.244 100.321C215.423 100.321 216.599 100.064 217.502 99.5455C217.954 99.2847 218.294 98.9876 218.526 98.6626C218.685 98.4415 218.786 98.2064 218.831 97.9713C218.857 98.0724 218.866 98.1735 218.866 98.274C218.866 98.2773 218.866 98.2807 218.866 98.284V98.346C218.836 99.0133 218.38 99.6745 217.496 100.18C216.594 100.697 215.414 100.955 214.234 100.955Z" fill="#563CBF"/>
<path d="M209.563 96.9104L209.561 97.6051C209.56 97.7134 209.569 97.8223 209.596 97.9312C209.707 98.5108 210.151 99.0781 210.918 99.5248C211.729 99.9984 212.768 100.26 213.824 100.31C215.14 100.378 216.491 100.126 217.502 99.5455C217.954 99.2847 218.294 98.9877 218.526 98.6627C218.685 98.4415 218.786 98.2064 218.831 97.9714C218.859 97.8675 218.868 97.7592 218.869 97.6548L218.872 96.9378C218.874 96.2453 218.425 95.5557 217.519 95.0275C217.438 94.9817 217.357 94.9365 217.271 94.8951C215.445 93.9693 212.675 94.0039 210.935 95.0018C210.02 95.5278 209.562 96.2185 209.563 96.9104Z" fill="#5D43C5"/>
<path d="M214.244 100.321C214.104 100.321 213.964 100.317 213.824 100.31C212.768 100.26 211.729 99.9984 210.918 99.5248C210.151 99.0781 209.707 98.5108 209.596 97.9312C209.57 97.8256 209.561 97.7206 209.561 97.6151C209.561 97.6118 209.561 97.6084 209.561 97.6051L209.563 96.9104C209.563 96.8864 209.564 96.8624 209.564 96.8378C209.564 96.8546 209.564 96.8708 209.564 96.8875C209.558 98.3673 211.636 99.5751 214.207 99.5851C214.218 99.5851 214.229 99.5851 214.24 99.5851C216.795 99.5851 218.865 98.398 218.872 96.9249C218.872 96.9266 218.872 96.9283 218.872 96.9299C218.872 96.9327 218.872 96.935 218.872 96.9378L218.869 97.6547C218.868 97.7592 218.859 97.8675 218.831 97.9714C218.786 98.2064 218.685 98.4415 218.526 98.6627C218.294 98.9877 217.954 99.2847 217.502 99.5455C216.599 100.064 215.423 100.321 214.244 100.321Z" fill="#9C84FA"/>
<path d="M209.564 96.8875C209.558 98.3673 211.636 99.5751 214.207 99.5851C216.777 99.5952 218.865 98.4036 218.871 96.9238C218.878 95.444 216.798 94.2362 214.228 94.2262C211.658 94.2161 209.569 95.4077 209.564 96.8875Z" fill="#5D43C5"/>
<path d="M212.615 94.139L212.606 96.5524L212.618 96.6652C212.657 96.8662 212.811 97.0628 213.076 97.2174C213.358 97.3816 213.717 97.4726 214.084 97.4899C214.54 97.5134 215.007 97.4257 215.358 97.2247C215.515 97.1342 215.633 97.0315 215.713 96.9193C215.768 96.8422 215.803 96.7607 215.819 96.6791L215.832 96.5697L215.841 94.1479C215.842 93.9084 215.686 93.6694 215.373 93.4862L215.286 93.4404C214.653 93.1194 213.694 93.1311 213.091 93.4767C212.774 93.6593 212.614 93.8989 212.615 94.139Z" fill="#5D43C5"/>
<path d="M214.23 97.4933C214.181 97.4933 214.132 97.4922 214.084 97.4899C213.717 97.4726 213.358 97.3816 213.076 97.2174C212.811 97.0627 212.657 96.8662 212.618 96.6652L212.606 96.5524L212.615 94.139C212.615 94.1367 212.615 94.1351 212.615 94.1334C212.616 94.6449 213.335 95.062 214.225 95.0654C214.229 95.0654 214.232 95.0654 214.236 95.0654C215.121 95.0654 215.839 94.6538 215.84 94.1434C215.84 94.1451 215.84 94.1462 215.84 94.1479L215.832 96.5697L215.819 96.6791C215.803 96.7607 215.768 96.8422 215.713 96.9192C215.633 97.0315 215.515 97.1342 215.358 97.2247C215.045 97.4045 214.638 97.4933 214.23 97.4933ZM214.038 93.2143C214.04 93.2143 214.042 93.2143 214.044 93.2137C214.042 93.2143 214.04 93.2143 214.038 93.2143ZM214.046 93.2137C214.104 93.2103 214.162 93.2081 214.22 93.2081C214.255 93.2081 214.29 93.2092 214.325 93.2103C214.294 93.2092 214.263 93.2087 214.232 93.2087C214.228 93.2087 214.224 93.2087 214.22 93.2087C214.162 93.2087 214.104 93.2103 214.046 93.2137ZM214.329 93.2103C214.328 93.2103 214.327 93.2103 214.326 93.2103C214.327 93.2103 214.328 93.2103 214.329 93.2103Z" fill="#9C84FA"/>
<path d="M212.615 94.1306C212.613 94.6433 213.334 95.0621 214.225 95.0654C215.116 95.0693 215.839 94.6561 215.84 94.1429C215.843 93.6303 215.122 93.2115 214.232 93.2087C213.341 93.2048 212.617 93.618 212.615 94.1306Z" fill="#5D43C5"/>
<path d="M214.231 94.4662C214.23 94.4662 214.229 94.4662 214.227 94.4662C213.911 94.4656 213.655 94.3165 213.656 94.1345C213.656 93.953 213.911 93.8073 214.226 93.8073C214.227 93.8073 214.229 93.8073 214.23 93.8073C214.546 93.8084 214.801 93.9569 214.801 94.139C214.8 94.3205 214.546 94.4662 214.231 94.4662Z" fill="#7D61ED"/>
<path d="M182.434 0.154045L141.986 23.5477C141.641 23.747 141.362 24.2317 141.362 24.6299V41.474C141.362 41.8727 141.643 42.3546 141.989 42.55L144.225 43.8053C144.572 44.0008 145.132 43.9985 145.476 43.7992L185.925 20.4061C186.269 20.2068 186.549 19.7221 186.549 19.3239V2.47923C186.549 2.08109 186.268 1.59919 185.921 1.40319L183.686 0.147911C183.339 -0.0475273 182.779 -0.0447426 182.434 0.154045Z" fill="#5D43C5"/>
<path d="M144.853 43.4385V26.5943C144.853 26.1956 145.132 25.7109 145.476 25.5122L185.925 2.11853C186.269 1.91973 186.549 2.08111 186.549 2.47925V19.324C186.549 19.7221 186.269 20.2068 185.925 20.4061L145.476 43.7992C145.132 43.9986 144.853 43.8372 144.853 43.4385Z" fill="#5D43C5"/>
<path d="M144.602 43.9309C144.458 43.9102 144.326 43.8689 144.224 43.8064L143.01 43.1229L144.225 43.8053C144.334 43.8667 144.464 43.9086 144.602 43.9309ZM141.655 42.2507C141.479 42.024 141.362 41.7325 141.362 41.4756V35.3796L141.362 35.379V41.4739C141.362 41.7314 141.479 42.0234 141.655 42.2507ZM141.362 30.5729V24.6298C141.362 24.5622 141.37 24.4924 141.385 24.4226C141.37 24.493 141.362 24.5628 141.362 24.6298V30.5723L141.362 30.5729Z" fill="#C3C5C2"/>
<path d="M144.831 43.9471C144.753 43.9471 144.676 43.9421 144.602 43.9309C144.464 43.9086 144.334 43.8667 144.225 43.8053L143.01 43.1229L141.99 42.5489C141.867 42.4808 141.752 42.3753 141.655 42.2507C141.479 42.0235 141.362 41.7314 141.362 41.474V35.3791L144.852 32.4837L141.416 30.5277L141.362 30.5723V24.6298C141.362 24.5628 141.37 24.493 141.385 24.4227C141.417 24.2769 141.479 24.1295 141.56 23.9927L145.035 25.9784C144.999 26.0415 144.967 26.1074 144.941 26.1738C144.884 26.314 144.853 26.4592 144.853 26.5943V43.4384C144.853 43.7204 144.992 43.8835 145.195 43.8846C145.197 43.8846 145.199 43.8846 145.201 43.8846C145.261 43.8846 145.327 43.8701 145.398 43.8394C145.237 43.9109 145.033 43.9471 144.831 43.9471Z" fill="#482CB5"/>
<path d="M145.436 43.8215C145.444 43.8171 145.452 43.8132 145.46 43.8088C145.464 43.8065 145.468 43.8043 145.472 43.8021C145.46 43.8088 145.447 43.8154 145.436 43.8215Z" fill="#C3C5C2"/>
<path d="M145.398 43.8394C145.409 43.8344 145.419 43.8293 145.43 43.8243C145.431 43.8238 145.432 43.8232 145.433 43.8227C145.438 43.8199 145.444 43.8171 145.449 43.8143C145.453 43.8121 145.457 43.8104 145.46 43.8088C145.452 43.8132 145.444 43.8171 145.435 43.8216C145.423 43.8282 145.41 43.8338 145.398 43.8394Z" fill="#482CB5"/>
<path d="M145.473 43.802C145.474 43.801 145.475 43.8004 145.476 43.7994C145.475 43.8004 145.474 43.801 145.473 43.802Z" fill="#C3C5C2"/>
<path d="M145.195 43.8846C144.992 43.8835 144.853 43.7205 144.853 43.4385V26.5943V43.4368C144.853 43.6993 144.985 43.8819 145.195 43.8846ZM145.433 43.8227C145.439 43.8199 145.444 43.8171 145.45 43.8143C145.444 43.8171 145.439 43.8199 145.433 43.8227ZM144.941 26.1738C144.967 26.1074 144.999 26.0415 145.035 25.9784L145.037 25.979C145 26.0421 144.967 26.1074 144.941 26.1738Z" fill="#482CB5"/>
<path d="M141.558 23.9922V23.9916C141.659 23.8219 141.792 23.6728 141.941 23.5756C141.793 23.6733 141.66 23.8224 141.558 23.9922ZM158.839 13.8008L182.435 0.152946C182.609 0.0524349 182.837 0.0021801 183.066 0.0021801C183.29 0.0021801 183.514 0.050209 183.686 0.147369L185.92 1.40209C185.986 1.43951 186.049 1.48697 186.109 1.54225C186.049 1.48753 185.986 1.44007 185.921 1.40321L183.686 0.14793C183.515 0.0513268 183.291 0.00329781 183.067 0.00329781C182.838 0.00329781 182.609 0.0535526 182.434 0.154064L158.839 13.8008Z" fill="white"/>
<path d="M145.035 25.9784L141.561 23.9916C141.56 23.9922 141.56 23.9927 141.56 23.9927L141.558 23.9922C141.66 23.8224 141.793 23.6733 141.941 23.5756C141.956 23.5656 141.972 23.5561 141.987 23.5477L158.839 13.8008L182.434 0.154053C182.609 0.0535412 182.838 0.00328827 183.067 0.00328827C183.291 0.00328827 183.515 0.0513153 183.686 0.147919L185.921 1.4032C185.986 1.44006 186.049 1.48752 186.109 1.54224C186.332 1.74941 186.502 2.06491 186.539 2.35695C186.522 2.257 186.483 2.1777 186.428 2.12297C186.369 2.06378 186.292 2.03252 186.203 2.03252C186.119 2.03252 186.024 2.05988 185.923 2.11796L157.425 18.6014L145.476 25.5121C145.304 25.6115 145.148 25.7824 145.035 25.9784Z" fill="#9F8CEB"/>
<path d="M145.037 25.979L145.035 25.9784C145.148 25.7824 145.304 25.6116 145.476 25.5122L157.425 18.6014L145.478 25.5122C145.305 25.6127 145.149 25.7836 145.037 25.979ZM186.54 2.36593C186.524 2.26151 186.484 2.17942 186.428 2.12302C186.483 2.17774 186.522 2.25705 186.539 2.357C186.539 2.35979 186.54 2.36314 186.54 2.36593Z" fill="#9F8CEB"/>
<path d="M145.035 25.9784L141.56 23.9927C141.56 23.9927 141.56 23.9922 141.561 23.9916L145.035 25.9784Z" fill="#A18FE9"/>
<path d="M139.652 37.7623C139.261 37.5289 136.326 35.8744 136.231 35.8197C135.943 35.6438 135.839 35.2166 136.107 34.9279L141.416 30.5277L144.852 32.4838L139.546 36.8868C139.287 37.1637 139.39 37.5725 139.652 37.7623Z" fill="#5D43C5"/>
<path d="M139.652 37.7623C139.26 37.5289 136.326 35.8744 136.231 35.8197C136.059 35.7141 135.952 35.5198 135.952 35.3182C135.952 35.1825 135.999 35.044 136.107 34.9279L141.416 30.5277L144.852 32.4838L141.362 35.3791L141.361 35.3796L139.546 36.8868C139.441 36.9979 139.396 37.1308 139.395 37.262C139.395 37.4574 139.495 37.649 139.652 37.7623Z" fill="#9C84FA"/>
<path d="M144.853 32.4849L139.545 36.8856C139.185 37.2721 139.45 37.802 139.902 37.8439L144.853 37.2648V32.4849Z" fill="#5D43C5"/>
<path d="M148.028 30.9207C147.995 30.8626 147.983 30.7845 147.993 30.6834C148.002 30.584 148.028 30.4913 148.072 30.4059L149.628 27.3794C149.667 27.3051 149.714 27.218 149.77 27.1169C149.825 27.0164 149.889 26.9449 149.961 26.9036L150.845 26.3927C150.898 26.3619 150.944 26.3698 150.983 26.4161C151.021 26.4625 151.041 26.5328 151.041 26.6272V34.9535C151.041 35.0479 151.021 35.1411 150.983 35.2321C150.944 35.3232 150.898 35.384 150.845 35.4147L149.896 35.9631C149.843 35.9938 149.797 35.986 149.759 35.9396C149.721 35.8927 149.701 35.8224 149.701 35.728V30.0954L148.839 31.7533C148.796 31.8393 148.747 31.8907 148.694 31.908C148.641 31.9264 148.598 31.9063 148.564 31.8482L148.028 30.9207Z" fill="#FAFAF9"/>
<path d="M153.589 33.4807C153.589 33.575 153.569 33.6677 153.531 33.7587C153.492 33.8498 153.446 33.9106 153.394 33.9413L152.444 34.4897C152.392 34.5204 152.346 34.5126 152.307 34.4662C152.268 34.4199 152.249 34.349 152.249 34.2546V32.5666C152.249 32.4716 152.268 32.379 152.307 32.2874C152.346 32.1969 152.392 32.1355 152.444 32.1053L153.394 31.5564C153.446 31.5263 153.492 31.5346 153.531 31.5804C153.569 31.6273 153.589 31.6971 153.589 31.7921V33.4807Z" fill="#FAFAF9"/>
<path d="M156.028 32.07C156.028 32.1644 156.009 32.2571 155.971 32.3481C155.931 32.4397 155.885 32.5 155.833 32.5307L154.883 33.0791C154.831 33.1098 154.786 33.1019 154.746 33.0556C154.708 33.0093 154.689 32.9383 154.689 32.8445V31.1559C154.689 31.061 154.708 30.9689 154.746 30.8773C154.786 30.7863 154.831 30.7254 154.883 30.6947L155.833 30.1463C155.885 30.1156 155.931 30.124 155.971 30.1698C156.009 30.2167 156.028 30.287 156.028 30.3814V32.07Z" fill="#FAFAF9"/>
<path d="M158.468 30.6589C158.468 30.7533 158.448 30.8466 158.41 30.9376C158.371 31.0286 158.325 31.0895 158.272 31.1202L157.323 31.6685C157.272 31.6992 157.225 31.6914 157.186 31.6451C157.148 31.5987 157.128 31.5278 157.128 31.4334V29.7454C157.128 29.6505 157.148 29.5578 157.186 29.4662C157.225 29.3757 157.272 29.3143 157.323 29.2836L158.272 28.7352C158.325 28.7045 158.371 28.7135 158.41 28.7593C158.448 28.8062 158.468 28.876 158.468 28.9709V30.6589Z" fill="#FAFAF9"/>
<path d="M163.586 21.9255C163.586 22.1751 163.572 22.4236 163.542 22.6727C163.514 22.9212 163.463 23.1758 163.394 23.4343C163.324 23.6946 163.233 23.9643 163.119 24.2451C163.006 24.5255 162.866 24.8203 162.703 25.1302L161.689 27.0824L163.506 26.0315C163.559 26.0008 163.605 26.0086 163.644 26.0549C163.682 26.1018 163.702 26.1722 163.702 26.2665V27.633C163.702 27.7273 163.682 27.82 163.644 27.9116C163.605 28.0021 163.559 28.0629 163.506 28.0936L159.684 30.3038C159.63 30.3345 159.585 30.3267 159.546 30.2803C159.507 30.234 159.488 30.1636 159.488 30.0692V28.9608C159.488 28.8229 159.504 28.6766 159.535 28.5208C159.567 28.3656 159.62 28.2182 159.698 28.0791L161.863 24.0692C162.032 23.7476 162.138 23.4824 162.181 23.273C162.225 23.0624 162.246 22.872 162.246 22.7C162.246 22.6403 162.241 22.5599 162.228 22.4594C162.216 22.3589 162.188 22.2673 162.145 22.1852C162.102 22.1026 162.041 22.0461 161.961 22.0143C161.881 21.9831 161.774 22.0065 161.639 22.0847C161.502 22.1629 161.393 22.2673 161.31 22.3979C161.224 22.5286 161.159 22.6582 161.114 22.7877C161.068 22.9178 161.034 23.0423 161.012 23.1624C160.991 23.2819 160.975 23.3712 160.966 23.4276C160.941 23.5622 160.903 23.6638 160.852 23.7314C160.803 23.7995 160.742 23.8531 160.676 23.8917L159.785 24.4065L159.672 24.3875C159.642 24.3501 159.626 24.2926 159.626 24.215C159.63 23.8515 159.674 23.4673 159.756 23.0636C159.839 22.6598 159.962 22.2634 160.13 21.8747C160.296 21.4866 160.503 21.1304 160.752 20.8059C161 20.4821 161.293 20.2224 161.631 20.027C161.95 19.8427 162.231 19.764 162.474 19.7902C162.718 19.817 162.922 19.9231 163.087 20.1074C163.25 20.2917 163.375 20.5418 163.459 20.8579C163.544 21.1745 163.586 21.5302 163.586 21.9255Z" fill="#FAFAF9"/>
<path d="M166.091 26.2515C166.091 26.3459 166.072 26.4391 166.032 26.5301C165.994 26.6212 165.949 26.682 165.896 26.7127L164.946 27.2611C164.894 27.2918 164.847 27.2834 164.809 27.2376C164.771 27.1907 164.752 27.1204 164.752 27.026V25.338C164.752 25.243 164.771 25.1503 164.809 25.0588C164.847 24.9683 164.894 24.9069 164.946 24.8762L165.896 24.3278C165.949 24.2971 165.994 24.306 166.032 24.3518C166.072 24.3987 166.091 24.4685 166.091 24.5635V26.2515Z" fill="#FAFAF9"/>
<path d="M168.53 24.8415C168.53 24.9353 168.511 25.0286 168.472 25.1196C168.433 25.2106 168.388 25.2715 168.335 25.3022L167.386 25.8505C167.333 25.8813 167.287 25.8734 167.248 25.8271C167.21 25.7807 167.191 25.7098 167.191 25.6154V23.9274C167.191 23.8325 167.21 23.7398 167.248 23.6482C167.287 23.5577 167.333 23.4963 167.386 23.4662L168.335 22.9173C168.388 22.8871 168.433 22.8955 168.472 22.9413C168.511 22.9876 168.53 23.058 168.53 23.1529V24.8415Z" fill="#FAFAF9"/>
<path d="M170.97 23.4305C170.97 23.5249 170.951 23.6181 170.911 23.7091C170.873 23.8002 170.827 23.861 170.775 23.8912L169.826 24.4401C169.773 24.4702 169.727 24.4624 169.689 24.4161C169.65 24.3697 169.63 24.2994 169.63 24.205V22.5164C169.63 22.4215 169.65 22.3293 169.689 22.2377C169.727 22.1473 169.773 22.0859 169.826 22.0552L170.775 21.5068C170.827 21.4761 170.873 21.4845 170.911 21.5303C170.951 21.5772 170.97 21.6475 170.97 21.7425V23.4305Z" fill="#FAFAF9"/>
<path d="M175.828 11.9474C175.881 11.9173 175.926 11.9251 175.965 11.9714C176.004 12.0178 176.022 12.0881 176.022 12.1825V13.5489C176.022 13.6433 176.006 13.7388 175.972 13.8359C175.938 13.9325 175.907 14.0152 175.879 14.0839L175.002 16.1622C175.379 16.117 175.685 16.2298 175.921 16.5012C176.158 16.772 176.276 17.2433 176.276 17.9134C176.276 18.8844 176.088 19.7237 175.711 20.4312C175.335 21.1381 174.809 21.6876 174.133 22.0779C173.785 22.2789 173.478 22.3839 173.21 22.3928C172.942 22.4018 172.717 22.3387 172.533 22.2041C172.35 22.0701 172.209 21.8786 172.11 21.6306C172.011 21.3827 171.959 21.1018 171.954 20.7858C171.954 20.7093 171.969 20.6333 172.001 20.5591C172.033 20.4854 172.07 20.4351 172.113 20.41L173.026 19.8828C173.126 19.8242 173.205 19.8203 173.257 19.8717C173.31 19.9225 173.37 19.9761 173.435 20.0336C173.499 20.09 173.584 20.1297 173.688 20.1509C173.792 20.1727 173.941 20.128 174.133 20.0163C174.365 19.8823 174.557 19.7025 174.709 19.4769C174.861 19.2518 174.936 18.9888 174.936 18.6879C174.936 18.3874 174.861 18.2121 174.709 18.1624C174.557 18.1133 174.365 18.1546 174.133 18.2886L173.532 18.6359C173.479 18.6672 173.433 18.6594 173.395 18.6125C173.356 18.5661 173.337 18.4958 173.337 18.4008V17.293C173.337 17.1981 173.353 17.1031 173.388 17.006C173.421 16.9088 173.455 16.8206 173.489 16.7413L174.256 14.9187L172.366 16.0109C172.313 16.0416 172.268 16.0338 172.229 15.9869C172.191 15.9405 172.171 15.8702 172.171 15.7758V14.4094C172.171 14.315 172.191 14.2218 172.229 14.1308C172.268 14.0397 172.313 13.9789 172.366 13.9487L175.828 11.9474Z" fill="#FAFAF9"/>
<path d="M178.665 18.981C178.665 19.0754 178.646 19.1681 178.607 19.2591C178.569 19.3501 178.523 19.411 178.47 19.4417L177.521 19.9901C177.468 20.0208 177.423 20.013 177.384 19.9666C177.345 19.9203 177.326 19.8493 177.326 19.7555V18.0669C177.326 17.972 177.345 17.8799 177.384 17.7883C177.423 17.6978 177.468 17.6364 177.521 17.6057L178.47 17.0568C178.523 17.0266 178.569 17.035 178.607 17.0808C178.646 17.1277 178.665 17.1981 178.665 17.293V18.981Z" fill="#FAFAF9"/>
<path d="M181.105 17.5706C181.105 17.665 181.085 17.7577 181.046 17.8493C181.008 17.9403 180.962 18.0012 180.909 18.0313L179.961 18.5802C179.908 18.6104 179.863 18.6026 179.823 18.5562C179.784 18.5099 179.766 18.4395 179.766 18.3451V16.6565C179.766 16.5616 179.784 16.4695 179.823 16.3779C179.863 16.2869 179.908 16.226 179.961 16.1953L180.909 15.647C180.962 15.6162 181.008 15.6246 181.046 15.6704C181.085 15.7173 181.105 15.7871 181.105 15.882V17.5706Z" fill="#FAFAF9"/>
<path d="M183.544 16.1601C183.544 16.2539 183.525 16.3472 183.487 16.4382C183.448 16.5292 183.402 16.5901 183.35 16.6208L182.4 17.1691C182.347 17.1999 182.302 17.192 182.263 17.1457C182.224 17.0993 182.205 17.0284 182.205 16.934V15.246C182.205 15.1511 182.224 15.0584 182.263 14.9668C182.302 14.8763 182.347 14.8149 182.4 14.7848L183.35 14.2359C183.402 14.2057 183.448 14.2141 183.487 14.2599C183.525 14.3068 183.544 14.3766 183.544 14.4715V16.1601Z" fill="#FAFAF9"/>
<path d="M76.5487 116.925C76.5354 116.925 76.5225 116.924 76.5091 116.923L76.4283 116.908L73.2372 116.003C73.0031 115.937 72.867 115.693 72.9334 115.459C72.9886 115.264 73.1698 115.139 73.3605 115.139C73.3989 115.139 73.438 115.144 73.4765 115.155L76.6681 116.06C76.9022 116.126 77.0383 116.37 76.9714 116.604C76.9173 116.798 76.7405 116.925 76.5487 116.925Z" fill="#9FA1A1"/>
<path d="M73.2351 119.4C73.0544 119.384 72.8949 119.255 72.8481 119.069C72.7879 118.833 72.9312 118.594 73.167 118.534L76.382 117.72C76.4183 117.711 76.454 117.706 76.4897 117.706C76.687 117.706 76.8666 117.839 76.9162 118.039C76.9764 118.275 76.8337 118.514 76.5978 118.574L73.3823 119.388L73.2351 119.4Z" fill="#9FA1A1"/>
<path d="M74.891 122.372C74.8777 122.372 74.8648 122.372 74.8515 122.371C74.75 122.361 74.6518 122.317 74.576 122.238C74.4065 122.064 74.4104 121.785 74.5849 121.615L76.9636 119.3C77.0483 119.216 77.1587 119.175 77.2691 119.175C77.3846 119.175 77.4994 119.22 77.5853 119.309C77.7548 119.484 77.7509 119.762 77.5764 119.932L75.1977 122.247C75.113 122.331 75.0014 122.372 74.891 122.372Z" fill="#9FA1A1"/>
<path d="M77.7748 124.135C77.762 124.135 77.7486 124.135 77.7353 124.133L77.655 124.118C77.4208 124.051 77.2847 123.808 77.3516 123.574L78.2549 120.378C78.3096 120.183 78.4885 120.057 78.6792 120.057C78.7188 120.057 78.7584 120.063 78.798 120.074C79.0322 120.14 79.1682 120.384 79.1019 120.618L78.198 123.814C78.1434 124.008 77.9672 124.135 77.7748 124.135Z" fill="#9FA1A1"/>
<path d="M164.84 74.5442C164.934 74.49 156.871 79.1527 156.871 79.1527L139.369 81.6861C139.369 81.6861 126.578 62.4671 124.621 59.4451C122.663 56.4224 120.377 54.4893 115.073 54.4926L116.075 69.8257C116.241 70.321 126.821 83.372 133.796 90.4759C136.259 92.9843 137.773 93.6225 141.628 92.5532C151.461 89.8243 163.363 81.7336 164.335 79.7049C165.594 77.0782 164.746 74.5978 164.84 74.5442Z" fill="#F6879F"/>
<path d="M161.558 64.8252C162.603 61.4044 166.872 58.5739 170.864 59.6935L170.863 59.6946C171.437 59.8498 172.039 60.1028 172.661 60.4624C176.532 62.6982 179.67 68.1415 179.67 72.6199C179.67 73.4564 179.56 74.2002 179.356 74.8418L179.358 74.8412C178.312 78.2625 174.044 81.0763 170.051 79.9573L170.053 79.9562C169.48 79.7998 168.879 79.5469 168.259 79.1884C164.388 76.9503 161.25 71.507 161.25 67.0309C161.25 66.2011 161.359 65.4635 161.558 64.8252Z" fill="#33535F"/>
<path d="M168.259 79.1885C164.388 76.9504 161.25 71.5071 161.25 67.031C161.25 62.5543 164.388 60.7384 168.259 62.9748C172.131 65.2112 175.268 70.6539 175.268 75.1323C175.268 79.6106 172.13 81.4266 168.259 79.1885Z" fill="#273E47"/>
<path d="M168.259 67.9405C166.77 67.08 165.564 67.7775 165.564 69.4996C165.564 71.2211 166.77 73.3145 168.259 74.1756C169.748 75.0361 170.955 74.3381 170.955 72.6166C170.955 70.895 169.748 68.8016 168.259 67.9405Z" fill="#33535F"/>
<path d="M167.336 70.5242C167.336 71.1128 167.748 71.8292 168.258 72.1274C168.494 72.2659 168.715 72.2871 168.878 72.2089L168.944 72.1699C169.094 72.0632 169.182 71.865 169.182 71.5919C169.182 71.0028 168.768 70.2864 168.258 69.9882C168.021 69.8497 167.804 69.8285 167.641 69.9066L167.574 69.9457C167.425 70.0485 167.336 70.2473 167.336 70.5242Z" fill="#273E47"/>
<path d="M152.529 79.0857C152.529 79.6748 152.94 80.3912 153.45 80.6855C153.599 80.7743 153.73 80.8094 153.851 80.8094C153.961 80.8094 154.06 80.7776 154.159 80.7212L168.878 72.209L168.945 72.1699C169.094 72.0632 169.182 71.865 169.182 71.5919C169.182 71.0028 168.768 70.2864 168.258 69.9882C168.021 69.8497 167.804 69.8285 167.641 69.9067L167.574 69.9458L152.856 78.4541C152.646 78.5747 152.529 78.7556 152.529 79.0857Z" fill="#FAFAF9"/>
<path d="M138.081 78.396C139.126 74.9746 143.395 72.1441 147.387 73.2637L147.386 73.2648C147.959 73.4206 148.561 73.6736 149.184 74.0326C153.054 76.269 156.193 81.7123 156.193 86.1907C156.193 87.0272 156.083 87.771 155.879 88.4126L155.88 88.412C154.835 91.8333 150.566 94.6471 146.574 93.5275L146.576 93.527C146.003 93.3706 145.402 93.1176 144.782 92.7592C140.911 90.5211 137.773 85.0778 137.773 80.6011C137.773 79.7719 137.881 79.0337 138.081 78.396Z" fill="#33535F"/>
<path d="M144.782 92.7592C140.911 90.5211 137.773 85.0778 137.773 80.6011C137.773 76.125 140.911 74.3091 144.782 76.5455C148.653 78.7813 151.791 84.2246 151.79 88.7029C151.79 93.1813 148.653 94.9972 144.782 92.7592Z" fill="#273E47"/>
<path d="M144.782 81.5108C143.293 80.6503 142.086 81.3483 142.086 83.0699C142.086 84.7914 143.293 86.8849 144.782 87.7459C146.271 88.6064 147.478 87.909 147.478 86.1869C147.478 84.4653 146.271 82.3719 144.782 81.5108Z" fill="#33535F"/>
<path d="M143.859 84.0944C143.859 84.683 144.27 85.4 144.78 85.6976C145.018 85.8361 145.238 85.8579 145.401 85.7791L145.467 85.7406C145.616 85.634 145.704 85.4352 145.704 85.1621C145.704 84.5735 145.29 83.8566 144.78 83.5589C144.543 83.4204 144.327 83.3992 144.164 83.4768L144.097 83.5165C143.948 83.6192 143.859 83.8175 143.859 84.0944Z" fill="#273E47"/>
<path d="M141.628 85.3855C141.628 85.9746 142.038 86.6911 142.549 86.9859C142.697 87.0741 142.829 87.1099 142.949 87.1099C143.059 87.1099 143.158 87.078 143.257 87.0211L145.401 85.7792L145.468 85.7407C145.616 85.634 145.705 85.4352 145.705 85.1622C145.705 84.5736 145.29 83.8566 144.78 83.559C144.543 83.4205 144.327 83.3993 144.165 83.4769L144.097 83.5166L141.954 84.754C141.745 84.8751 141.628 85.0555 141.628 85.3855Z" fill="#FAFAF9"/>
<path d="M141.628 85.38C141.628 85.9685 142.038 86.6849 142.549 86.9831C142.786 87.1216 143.006 87.1428 143.169 87.0647L143.236 87.0256C143.384 86.9195 143.473 86.7207 143.473 86.4476C143.473 85.8585 143.059 85.1421 142.549 84.8445C142.311 84.706 142.096 84.6842 141.932 84.7624L141.866 84.8015C141.716 84.9042 141.628 85.103 141.628 85.38Z" fill="#DADBD8"/>
<path d="M159.735 83.6539C163.119 81.0646 166.364 81.0858 165.778 74.7603C165.282 71.9443 164.593 71.7695 161.866 70.7097C160.671 70.2456 159.093 69.8961 158.125 70.9894C158.01 71.119 157.909 71.2625 157.774 71.3702C157.515 71.5768 157.168 71.6232 156.84 71.6723C156.215 71.7645 155.549 71.9175 155.133 72.3932C154.816 72.7551 154.693 73.2537 154.383 73.6195C154.114 73.9344 153.731 74.1248 153.419 74.3951C152.928 74.8189 152.623 75.4555 152.62 76.1044C152.617 76.9325 153.088 77.4613 153.648 77.9962L155.351 77.0112C156.05 76.5299 157.489 78.2447 156.871 79.1527C155.891 80.5911 159.735 83.6539 159.735 83.6539Z" fill="#F6879F"/>
<path d="M120.314 96.3636C121.396 91.9813 121.708 81.0423 121.708 81.0423L90.045 81.9932C90.045 81.9932 91.3681 87.2885 91.7713 88.9034C92.1749 90.5177 92.224 93.6208 92.224 93.6208C92.224 93.6208 95.2963 99.3204 104.405 100.327C113.513 101.333 120.314 96.3636 120.314 96.3636Z" fill="#F6879F"/>
<path d="M121.708 81.0423C121.744 81.3897 121.525 84.7026 121.525 84.7026C117.475 88.1145 104.488 89.8422 90.8713 85.2996L87.9819 74.1355C87.9819 74.1355 97.787 69.8257 91.1652 55.3648L98.2833 54.812L110.921 54.4926C113.989 54.4926 115.073 54.4926 115.073 54.4926C117.002 56.3147 120.706 60.3698 123.62 65.8175C125.275 68.9122 127.386 73.4431 121.708 81.0423Z" fill="#33535F"/>
<path d="M103.809 81.1423C98.1071 79.6854 96.6752 76.1111 96.2698 73.4922C96.2698 73.4922 95.1926 81.1422 103.347 82.9252C111.943 84.8042 115.478 77.9867 115.478 77.9867C115.478 77.9867 110.691 82.9012 103.809 81.1423Z" fill="#273E47"/>
<path d="M55.2537 166.274C53.5912 167.498 49.7265 167.79 46.3183 166.194C42.9098 164.598 41.5024 160.076 42.138 156.541C42.9076 152.258 45.0213 149.915 45.5599 147.339C46.0992 144.764 45.5407 141.186 46.371 138.895C47.1603 136.716 48.8836 135.608 50.2751 135.051C51.4153 134.596 52.7083 134.735 53.7659 135.36L54.7715 135.954L55.2537 166.274Z" fill="#17282F"/>
<path d="M59.2425 149.942L56.6001 157.879C56.6001 157.879 58.2695 163.544 57.3311 165.048C55.941 167.275 53.4949 167.674 49.3736 166.416C44.6618 164.976 43.5484 160.707 43.781 157.388C44.1119 152.662 48.4772 149.101 47.9782 144.556C47.7345 142.335 48.0392 139.824 49.258 137.909C50.6247 135.76 52.8692 135.358 55.1956 136.06C57.1889 136.663 58.9408 137.918 60.6275 139.099C61.0992 139.429 61.5782 139.765 61.9351 140.217C62.2467 140.612 62.453 141.081 62.6047 141.562C62.9108 142.533 62.9995 143.572 62.8684 144.583C62.7458 145.531 62.143 146.084 61.5793 146.834C60.8004 147.869 60.0214 148.906 59.2425 149.942Z" fill="#273E47"/>
<path d="M70.6344 146.181C70.4705 146.118 62.3967 140.948 61.5252 140.559C60.6532 140.171 58.5182 139.614 56.4468 144.41C54.971 147.826 57.0952 149.087 57.0952 149.087L66.5435 154.725L70.6344 146.181Z" fill="#F6879F"/>
<path d="M56.6001 157.879C55.4687 157.29 53.0763 156.49 51.0917 156.646C50.4662 156.695 49.9811 156.116 50.1758 155.518L50.1812 155.502C50.29 155.169 50.5873 154.935 50.9364 154.908C52.2145 154.807 55.316 154.772 57.374 156.468C57.9127 157.6 56.6001 157.879 56.6001 157.879Z" fill="#5D43C5"/>
<path d="M57.568 154.252C56.4685 153.606 54.1207 152.683 52.1308 152.736C51.5033 152.753 51.049 152.149 51.2744 151.562L51.2802 151.547C51.4059 151.219 51.715 151.002 52.0653 150.992C53.3468 150.959 56.4456 151.083 58.4139 152.883C58.8934 154.042 57.568 154.252 57.568 154.252Z" fill="#5D43C5"/>
<path d="M56.6001 157.879C55.5661 157.34 53.4784 156.626 51.6116 156.626C51.436 156.626 51.2622 156.632 51.0917 156.646C51.0668 156.648 51.042 156.649 51.0176 156.649C50.5227 156.649 50.1335 156.256 50.1323 155.79C50.132 155.701 50.1458 155.61 50.1758 155.518L50.1812 155.502C50.2899 155.169 50.5873 154.935 50.9364 154.908C51.2041 154.887 51.5519 154.869 51.9533 154.869C53.4682 154.869 55.7471 155.127 57.374 156.468C57.4655 156.661 57.5034 156.828 57.5034 156.974C57.5045 157.687 56.6001 157.879 56.6001 157.879Z" fill="#7D61ED"/>
<path d="M57.5681 154.252C56.4992 153.624 54.2493 152.734 52.2964 152.734C52.2409 152.734 52.186 152.734 52.1309 152.736C52.1224 152.736 52.1137 152.736 52.1051 152.736C51.6014 152.736 51.2154 152.336 51.2156 151.873C51.2159 151.771 51.2344 151.667 51.2745 151.562L51.2803 151.547C51.406 151.219 51.7151 151.002 52.0653 150.992C52.1649 150.989 52.2755 150.988 52.3957 150.988C53.8217 150.988 56.599 151.223 58.414 152.883C58.487 153.06 58.5182 153.214 58.5182 153.35C58.5205 154.101 57.5681 154.252 57.5681 154.252Z" fill="#7D61ED"/>
<path d="M139.853 167.132L150.337 162.966C150.162 160.261 149.494 156.65 150.186 149.543L138.292 147.275V159.203L139.853 167.132Z" fill="#F6879F"/>
<path d="M169.775 176.356C170.077 176.989 169.99 178.178 169.631 178.932C169.272 179.685 165.341 181.905 160.039 181.547C154.738 181.189 151.096 179.049 149.075 177.709C147.054 176.368 144.949 176.118 142.324 175.968C139.698 175.817 136.251 174.506 135.675 173.277C135.099 172.047 135.762 169.929 135.762 169.929L169.775 176.356Z" fill="#17282F"/>
<path d="M148.379 159.784C148.517 159.754 148.657 159.725 148.798 159.697C149.029 159.651 149.269 159.605 149.498 159.659C149.758 159.721 149.972 159.905 150.152 160.102C150.723 160.722 151.067 161.512 151.507 162.231C152.618 164.047 154.951 165.55 157.499 166.922C159.231 167.855 160.928 168.578 162.716 169.383C164.541 170.205 166.962 170.707 168.389 171.67C170.469 173.074 170.738 176.603 168.368 177.996C166.323 179.198 160.943 180.501 155.299 178.9C152.226 178.028 148.814 174.739 144.778 174.423C142.213 174.221 137.361 173.5 135.709 171.548C135.098 170.683 135.913 167.939 136.583 165.571C137.313 162.986 137.584 158.428 138.439 158.655C138.439 158.655 138.207 159.3 138.54 159.645C138.856 159.973 140.053 160.682 140.398 160.976C141.032 161.519 141.422 162.286 141.817 163.021C141.988 163.339 142.191 163.679 142.545 163.812C142.978 163.975 143.301 163.702 143.68 163.527C144.156 163.308 144.711 163.268 145.213 163.417C145.164 162.906 145.074 162.398 144.943 161.9C144.901 161.74 144.855 161.569 144.905 161.411C144.957 161.251 145.097 161.138 145.234 161.041C146.222 160.347 147.244 160.029 148.379 159.784Z" fill="#273E47"/>
<path d="M155.103 165.524C155.103 165.524 154.734 164.539 153.208 164.255C152.04 164.037 149.978 164.898 148.697 165.956C148.172 166.389 148.24 167.211 148.835 167.54C149.189 167.736 149.623 167.685 149.928 167.418C150.768 166.686 152.652 165.356 155.103 165.524Z" fill="#5D43C5"/>
<path d="M158.721 167.554C158.721 167.554 157.967 166.373 156.476 166.396C156.476 166.396 153.427 166.483 151.54 168.245C151.059 168.694 151.092 169.459 151.67 169.777C152.012 169.965 152.43 169.915 152.722 169.654C153.573 168.894 155.276 167.296 158.721 167.554Z" fill="#5D43C5"/>
<path d="M162.716 169.384C162.716 169.384 161.876 168.314 160.385 168.337C160.385 168.337 157.544 168.443 155.657 170.205C155.176 170.654 155.209 171.419 155.786 171.736C156.129 171.925 156.547 171.875 156.839 171.614C157.689 170.854 159.271 169.125 162.716 169.384Z" fill="#5D43C5"/>
<path d="M149.293 167.659C149.136 167.659 148.979 167.62 148.835 167.54C148.51 167.36 148.342 167.033 148.342 166.702C148.343 166.429 148.459 166.153 148.697 165.956C149.843 165.01 151.614 164.221 152.811 164.221C152.952 164.221 153.085 164.232 153.208 164.255C154.734 164.539 155.103 165.524 155.103 165.524C155.101 165.524 155.1 165.524 155.098 165.524C154.956 165.515 154.815 165.51 154.677 165.51C152.435 165.51 150.719 166.729 149.928 167.418C149.747 167.577 149.521 167.659 149.293 167.659Z" fill="#7D61ED"/>
<path d="M152.109 169.89C151.959 169.89 151.808 169.853 151.669 169.777C151.358 169.605 151.205 169.304 151.206 168.993C151.206 168.726 151.318 168.452 151.54 168.245C153.427 166.483 156.476 166.396 156.476 166.396C156.49 166.396 156.504 166.396 156.518 166.396C157.981 166.396 158.721 167.554 158.721 167.554C158.469 167.535 158.226 167.526 157.991 167.526C155.031 167.526 153.51 168.95 152.722 169.654C152.548 169.809 152.33 169.89 152.109 169.89Z" fill="#7D61ED"/>
<path d="M156.226 171.85C156.076 171.85 155.925 171.813 155.785 171.736C155.475 171.565 155.322 171.264 155.322 170.953C155.323 170.686 155.435 170.412 155.657 170.205C157.544 168.443 160.385 168.336 160.385 168.336C160.401 168.336 160.416 168.336 160.431 168.336C161.893 168.336 162.716 169.383 162.716 169.383C162.481 169.366 162.254 169.357 162.035 169.357C159.059 169.357 157.631 170.906 156.839 171.614C156.665 171.77 156.447 171.85 156.226 171.85Z" fill="#7D61ED"/>
<path d="M147.019 107.233C139.049 105.441 120.005 101.455 120.005 101.455L120.314 96.3637C113.424 99.9363 98.9111 98.9267 92.224 93.6214L91.1674 99.02C91.1674 99.02 87.4226 103.34 84.6191 108.894C83.0902 111.924 80.5337 116.653 83.0774 127.67C84.5706 134.14 86.564 151.177 86.564 151.177L67.0698 143.977C67.0698 143.977 65.3814 144.262 63.978 147.922C63.1461 150.092 62.8372 152.174 63.7132 153.252C70.8485 158.894 82.4133 168.117 94.0991 173.288C101.9 176.282 106.055 169.707 106.436 167.274C107.9 157.948 109.593 127.986 109.593 127.986L135.64 127.153C134.779 132.1 138.292 151.431 138.292 151.431C138.292 151.431 144.711 154.217 150.032 151.365C150.032 151.365 153.59 129.116 153.929 121.698C154.308 113.423 154.734 108.968 147.019 107.233Z" fill="#5D43C5"/>
<path d="M133.513 127.221C135.408 119.413 139.542 118.671 139.542 118.671C136.526 121.153 135.64 125.818 135.64 127.153L133.513 127.221Z" fill="#4228A7"/>
<path d="M88.5267 162.117C88.5267 162.117 85.0044 155.75 84.6019 150.453L86.564 151.177C86.564 151.177 87.0954 158.535 88.5267 162.117Z" fill="#4228A7"/>
<path d="M91.1652 99.0227L91.1674 99.0199C91.1674 99.0199 91.1668 99.021 91.1652 99.0227ZM91.1674 99.0199L92.2235 93.6224L91.1674 99.0199Z" fill="#C7C9C7"/>
<path d="M109.543 98.4705C103.188 98.4705 96.276 96.8338 92.2274 93.6241H92.2279C96.2765 96.8338 103.188 98.4705 109.543 98.4699C113.684 98.4699 117.591 97.7741 120.309 96.3658V96.3664C117.591 97.7747 113.685 98.4699 109.543 98.4705Z" fill="#F27785"/>
<path d="M109.283 104.168C108.474 104.168 107.605 104.146 106.674 104.098C95.5154 103.519 91.2204 99.0804 91.1652 99.0229C91.1668 99.0212 91.1674 99.0201 91.1674 99.0201L92.2234 93.6226L92.2274 93.6243C96.276 96.8339 103.188 98.4706 109.543 98.4706C113.685 98.4701 117.591 97.7748 120.309 96.3666L120.001 101.455C120.001 101.455 118.239 104.169 109.283 104.168Z" fill="#4228A7"/>
<path d="M109.593 127.986C109.593 127.986 109.771 119.583 102.765 113.423C102.765 113.423 108.767 116.191 110.771 125.051C110.771 125.051 115.244 122.971 117.562 116.727C117.562 116.727 116.848 122.971 113.258 126.518L124.084 127.522L109.593 127.986Z" fill="#4228A7"/>
<path d="M106.083 15.0472C96.4583 15.0472 88.6555 22.8608 88.6555 32.5C88.6555 42.1385 96.4583 49.9528 106.083 49.9528C115.708 49.9528 123.51 42.1385 123.51 32.5C123.51 22.8608 115.708 15.0472 106.083 15.0472Z" fill="#17282F"/>
<path d="M87.9078 25.6797C88.5362 25.6518 89.1668 25.6864 89.7896 25.7858C89.9998 25.8199 90.2284 25.8718 90.3606 26.0393C90.4548 26.1594 90.4816 26.3174 90.5011 26.4687C90.6176 27.3979 90.5775 28.4689 90.239 29.3535C89.992 29.999 89.2253 30.3307 88.7408 30.8008C86.8556 32.629 86.7062 35.6623 87.4472 38.1834C88.1877 40.7041 89.6547 42.9438 90.6449 45.3767C91.6503 47.8471 92.1192 50.7452 90.7559 53.172C90.2268 54.1135 89.2621 54.8254 89.3764 55.9813C89.5131 57.35 90.7029 58.6594 91.2192 59.9069C91.8153 61.3487 91.9525 62.9524 91.7947 64.5048C91.5995 66.4178 90.9438 68.3169 89.7088 69.7894C87.8983 71.9488 84.8584 72.9941 82.1056 72.4044C81.5307 72.2816 80.957 72.0862 80.4969 71.7193C79.674 71.0615 79.3494 69.9821 78.9039 69.0267C77.467 65.9421 74.4377 63.6956 73.5199 60.4178C72.5492 56.9513 74.2135 53.2988 76.2537 50.3348C77.2072 48.9494 78.2722 47.5886 78.7383 45.972C79.3678 43.7875 78.8181 41.4629 78.6742 39.1936C78.5337 36.979 78.7891 34.7403 79.4242 32.6145C79.8847 31.0733 80.5923 29.2976 81.7922 28.1937C83.4499 26.6692 85.6624 25.7791 87.9078 25.6797Z" fill="#17282F"/>
<path d="M117.006 23.035C118.915 24.1759 121.262 29.0077 120.987 39.1153C120.753 47.6823 117.972 49.7875 116.577 50.3917C115.182 50.9958 112.498 50.6139 109.889 50.1672L109.868 55.3089C109.868 55.3089 113.459 59.5209 113.222 61.878C112.986 64.235 108 64.7716 104.634 62.4542C101.267 60.1369 98.4405 55.6356 98.4405 55.6356L98.5487 43.8131C98.5487 43.8131 97.0058 45.3007 94.4097 43.009C92.267 41.1172 91.5555 37.9388 93.2388 36.2418C94.9216 34.5448 98.0173 35.0211 99.1949 37.4563C99.1949 37.4563 103.358 37.6255 108.915 34.5979C114.472 31.5702 116.624 26.3547 117.006 23.035Z" fill="#F6879F"/>
<path d="M111.444 36.9235C111.472 37.5411 111.015 38.0627 110.421 38.0884C109.827 38.1141 109.323 37.6344 109.295 37.0168C109.266 36.3992 109.724 35.8777 110.318 35.852C110.911 35.8263 111.415 36.3065 111.444 36.9235Z" fill="#17282F"/>
<path d="M112.957 45.9491C112.828 45.9491 112.698 45.929 112.568 45.8871C111.879 45.6637 111.491 44.9032 111.701 44.1879L114.197 44.9959C114.026 45.5772 113.513 45.9491 112.957 45.9491Z" fill="#F3647D"/>
<path d="M120.278 33.652L118.108 32.1315C118.508 31.5111 119.317 31.348 119.917 31.7679C120.516 32.1873 120.678 33.031 120.278 33.652Z" fill="#17282F"/>
<path d="M119.766 36.1792C119.795 36.7968 119.336 37.3178 118.743 37.3435C118.149 37.3697 117.645 36.89 117.617 36.2725C117.588 35.6543 118.046 35.1333 118.639 35.1076C119.233 35.082 119.738 35.5616 119.766 36.1792Z" fill="#17282F"/>
<path d="M114.838 42.0273L114.693 35.5415L118.25 40.9843L114.838 42.0273Z" fill="#F3647D"/>
<path d="M109.882 51.8827C109.882 51.8827 104.271 50.2242 102.586 48.7657C100.901 47.3077 100.613 45.8983 100.613 45.8983C101.486 48.1425 107.139 49.7948 109.889 50.1673L109.882 51.8827Z" fill="#F3647D"/>
<path d="M91.1652 55.3648C85.7672 55.7473 83.5408 56.4369 80.536 63.1132C77.8328 69.1188 71.3638 84.649 69.7457 88.1144C68.127 91.5799 67.8237 92.9686 69.1741 96.5904C70.2754 99.5438 79.3974 116.514 80.3944 118.988C81.3902 121.461 81.8335 123.962 83.533 126.845C85.2331 129.728 87.9212 132.54 90.045 133.206C93.1953 134.195 97.2724 132.819 97.4145 130.918C97.5573 129.017 92.7922 125.833 91.5031 121.607C91.5031 121.607 92.9188 122.55 94.1995 123.074C95.4803 123.599 96.9038 123.485 97.3309 122.758C97.7575 122.031 96.4767 121.588 95.3381 120.455C94.659 119.78 93.4535 118.264 91.9151 116.923C90.8752 116.017 89.164 115.749 88.399 114.756C87.9819 114.226 86.109 109.628 84.7022 105.533C82.9604 100.462 80.6693 93.7051 80.6693 93.7051L90.045 74.1354C90.045 74.1354 97.4173 66.8126 91.1652 55.3648Z" fill="#F6879F"/>
<path d="M80.3943 118.988C80.3943 118.988 82.555 114.616 88.399 114.756L86.855 111.314C86.855 111.314 81.1499 111.719 78.7439 115.584L80.3943 118.988Z" fill="#273E47"/>
<path d="M79.7654 115.273L81.0361 117.057C81.4259 117.603 82.1753 117.719 82.7106 117.315L84.9543 115.626C85.4895 115.223 85.6189 114.445 85.2425 113.89L84.0772 112.169C83.7008 111.614 82.9548 111.481 82.4106 111.873L80.0459 113.575C79.5017 113.967 79.3762 114.727 79.7654 115.273Z" fill="#17282F"/>
<path d="M79.345 115.23L80.6157 117.013C81.0049 117.56 81.7549 117.676 82.2901 117.272L84.5333 115.582C85.0686 115.179 85.1979 114.402 84.8216 113.847L83.6562 112.126C83.2804 111.571 82.5338 111.438 81.9902 111.83L79.6255 113.532C79.0813 113.924 78.9552 114.684 79.345 115.23Z" fill="#33535F"/>
<path d="M84.5751 114.642C84.5517 114.873 84.4357 115.082 84.2578 115.216L82.0152 116.906C81.8552 117.026 81.6617 117.075 81.4677 117.046C81.2747 117.016 81.1047 116.91 80.9881 116.748L79.7174 114.965C79.6104 114.814 79.5618 114.628 79.5808 114.445C79.6025 114.229 79.7163 114.031 79.893 113.905L82.2578 112.202C82.4195 112.085 82.6135 112.04 82.8053 112.074C82.9977 112.108 83.1655 112.218 83.2776 112.384L84.4435 114.104C84.5478 114.259 84.5946 114.45 84.5751 114.642Z" fill="#5D43C5"/>
</g>
<defs>
<clipPath id="clip0">
<rect width="266" height="217" fill="white"/>
</clipPath>
</defs>
</svg>
